<?xml version="1.0" encoding="UTF-8"?>
<svg xmlns="http://www.w3.org/2000/svg" xmlns:xlink="http://www.w3.org/1999/xlink" viewBox="0 0 100 100" width="100px" height="100px">
<g id="surface175928753">
<rect x="0" y="0" width="100" height="100" style="fill:rgb(92.54902%,94.117647%,94.509804%);fill-opacity:1;stroke:none;"/>
<path style=" stroke:none;fill-rule:nonzero;fill:rgb(0%,0%,0%);fill-opacity:1;" d="M 47.339844 3.8125 C 45.757812 3.839844 44.160156 3.960938 42.546875 4.191406 C 40.175781 4.707031 37.882812 5.542969 35.835938 6.617188 C 33.257812 7.789062 30.585938 9 28.175781 9.171875 C 28.054688 9.179688 27.933594 9.199219 27.816406 9.230469 C 24.445312 10.101562 21.535156 12.183594 19.664062 15.042969 L 19.363281 15.480469 C 19.300781 15.574219 19.242188 15.667969 19.195312 15.769531 C 17.546875 19.222656 17.105469 23.175781 17.996094 27.042969 C 18.566406 28.914062 19.25 30.710938 19.910156 32.449219 L 20.113281 32.976562 C 21.65625 36.59375 22.773438 40.394531 23.445312 44.273438 C 23.480469 44.46875 23.539062 44.660156 23.628906 44.835938 C 24.285156 46.140625 24.800781 47.511719 25.175781 48.988281 C 25.339844 49.566406 25.511719 50.160156 25.695312 50.757812 C 25.746094 50.929688 25.847656 51.066406 25.9375 51.210938 C 25.941406 51.421875 25.96875 51.632812 26.039062 51.835938 L 28.816406 59.78125 C 29.003906 60.320312 29.414062 60.753906 29.941406 60.96875 C 30.472656 61.183594 31.066406 61.164062 31.578125 60.914062 C 36.820312 58.367188 49.105469 52.398438 66.050781 62.996094 C 66.375 63.199219 66.742188 63.300781 67.113281 63.300781 C 67.382812 63.300781 67.652344 63.25 67.90625 63.136719 C 68.511719 62.875 68.949219 62.332031 69.074219 61.6875 C 69.484375 59.601562 69.628906 56.253906 69.496094 53.527344 L 69.621094 52.929688 C 69.78125 52.140625 69.941406 51.339844 70.113281 50.546875 C 71.699219 47.023438 74.5 43.617188 77.210938 40.320312 C 81.460938 35.15625 85.855469 29.8125 85.476562 23.84375 C 85.457031 23.570312 85.386719 23.304688 85.265625 23.0625 C 84.640625 21.832031 83.9375 20.632812 83.070312 19.285156 L 82.902344 19.015625 C 82.699219 18.699219 82.496094 18.386719 82.289062 18.089844 C 82.132812 17.867188 81.972656 17.652344 81.816406 17.445312 L 81.648438 17.21875 C 81.332031 16.792969 81.011719 16.371094 80.6875 15.972656 C 80.511719 15.761719 80.335938 15.558594 80.105469 15.296875 C 79.742188 14.882812 79.382812 14.480469 79.015625 14.097656 L 78.53125 13.605469 C 78.105469 13.183594 77.679688 12.78125 77.257812 12.414062 L 76.949219 12.148438 C 71.632812 7.613281 66.167969 6.417969 62.84375 5.691406 L 60.988281 5.273438 C 56.65625 4.441406 52.082031 3.726562 47.339844 3.8125 Z M 49.324219 7.820312 C 51.132812 7.875 52.972656 8.046875 54.878906 8.308594 C 48.363281 18.011719 49.472656 31.128906 50.992188 42.574219 C 49.003906 42.421875 46.96875 42.375 44.925781 42.476562 C 43.769531 35.664062 42.5625 27.113281 41.53125 20.375 C 41.222656 17.339844 41.492188 14.277344 42.316406 11.34375 C 43.136719 9.578125 43.214844 8.582031 43.949219 8.046875 C 45.734375 7.832031 47.515625 7.765625 49.324219 7.820312 Z M 42.867188 8.238281 C 41.980469 8.988281 41.335938 10.171875 40.894531 11.671875 C 40.15625 14.722656 39.90625 17.867188 40.152344 20.996094 C 40.640625 28.304688 41.96875 35.519531 44.007812 42.539062 C 42.078125 42.675781 40.164062 42.933594 38.316406 43.34375 C 36.917969 38.519531 37.164062 33.035156 36.710938 27.921875 C 36.253906 22.078125 34.332031 16.542969 31.882812 13.265625 C 31.714844 12.867188 31.734375 12.664062 31.785156 12.5 C 32.847656 12.1875 33.898438 11.808594 34.929688 11.375 C 35.050781 11.441406 35.175781 11.507812 35.285156 11.597656 L 35.324219 11.550781 C 35.214844 11.476562 35.101562 11.417969 34.988281 11.351562 C 35.871094 10.980469 36.746094 10.597656 37.589844 10.210938 C 39.296875 9.316406 41.105469 8.664062 42.867188 8.238281 Z M 35.285156 11.597656 L 35.261719 11.625 L 35.324219 11.625 C 35.3125 11.613281 35.300781 11.609375 35.285156 11.597656 Z M 54.988281 8.320312 C 56.660156 8.550781 58.375 8.84375 60.175781 9.191406 L 62.050781 9.613281 C 63.4375 9.917969 65.152344 10.304688 67.023438 10.976562 C 63.785156 16.769531 61.597656 23.101562 60.601562 29.671875 C 59.886719 34.425781 59.558594 39.21875 59.5625 44.019531 C 57.125 43.355469 54.339844 42.863281 51.402344 42.609375 C 51.285156 40.058594 51.203125 37.464844 51.308594 36.007812 C 51.65625 31.179688 52.058594 16.242188 54.988281 8.320312 Z M 67.535156 11.152344 C 69.6875 11.976562 72.03125 13.210938 74.351562 15.1875 L 74.613281 15.417969 C 74.980469 15.738281 75.347656 16.085938 75.714844 16.449219 L 76.136719 16.875 C 76.453125 17.203125 76.769531 17.554688 77.148438 17.992188 C 77.296875 18.164062 77.449219 18.335938 77.59375 18.511719 C 77.8125 18.78125 78.027344 19.070312 78.246094 19.359375 C 74.550781 20.796875 68.414062 34.425781 67.578125 46.746094 C 67.433594 47.003906 67.28125 47.257812 67.144531 47.519531 C 65.472656 46.117188 63.105469 45.101562 60.972656 44.421875 C 60.636719 44.316406 60.273438 44.222656 59.921875 44.121094 C 60.242188 39.289062 60.695312 34.222656 61.132812 29.644531 C 62.554688 22.125 66.191406 18.269531 67.535156 11.152344 Z M 31.160156 12.691406 C 31.257812 12.972656 31.410156 13.234375 31.613281 13.460938 C 34.039062 16.75 34.507812 22.097656 35.03125 27.929688 C 35.476562 33.070312 35.988281 38.585938 37.886719 43.441406 C 36.269531 43.828125 34.71875 44.335938 33.253906 44.972656 C 32.058594 40.648438 31.488281 35.769531 30.585938 31.359375 C 29.363281 25.394531 29.203125 20.058594 27.179688 18.429688 C 26.402344 17.359375 24.328125 17.453125 25.308594 15.488281 C 25.542969 15.066406 25.832031 14.683594 26.113281 14.292969 C 26.90625 13.808594 27.746094 13.398438 28.65625 13.148438 C 29.492188 13.074219 30.328125 12.90625 31.160156 12.691406 Z M 25.445312 14.695312 C 25.257812 14.953125 25.070312 15.210938 24.9375 15.503906 C 24.574219 16.171875 24.417969 16.929688 24.488281 17.6875 C 24.550781 18.082031 24.710938 18.460938 24.949219 18.78125 C 26.945312 20.375 27.984375 25.441406 29.195312 31.382812 C 30.109375 35.859375 31.167969 40.816406 32.785156 45.195312 C 31.386719 45.839844 30.085938 46.617188 28.90625 47.53125 C 28.511719 46.082031 27.992188 44.660156 27.332031 43.304688 C 26.605469 39.21875 25.414062 35.222656 23.820312 31.484375 L 23.648438 31.03125 C 23.011719 29.351562 22.351562 27.621094 21.855469 26.015625 C 21.214844 23.214844 21.527344 20.242188 22.734375 17.636719 L 22.976562 17.289062 C 23.640625 16.269531 24.480469 15.398438 25.445312 14.695312 Z M 78.429688 19.601562 C 78.433594 19.605469 78.433594 19.605469 78.4375 19.613281 L 78.625 19.859375 C 78.757812 20.03125 78.886719 20.203125 79.011719 20.382812 C 79.1875 20.636719 79.359375 20.902344 79.53125 21.171875 L 79.710938 21.453125 C 80.414062 22.539062 80.988281 23.515625 81.5 24.492188 C 81.542969 28.761719 77.9375 33.148438 74.125 37.78125 C 72.640625 39.582031 71.136719 41.417969 69.773438 43.320312 C 72.851562 35.441406 75.824219 27.589844 78.429688 19.601562 Z M 46.292969 46.460938 C 51.152344 46.347656 56.039062 47.054688 59.761719 48.238281 C 64.203125 49.648438 65.261719 51.128906 65.304688 51.558594 C 65.378906 52.050781 65.429688 52.648438 65.46875 53.28125 L 65.457031 53.332031 C 65.390625 53.65625 65.429688 53.972656 65.515625 54.273438 C 65.554688 55.492188 65.539062 56.808594 65.472656 58.023438 C 58.5 54.21875 52.226562 52.945312 46.878906 52.945312 C 40.347656 52.945312 35.203125 54.847656 31.863281 56.359375 L 30.214844 51.644531 C 33.84375 48.09375 40.042969 46.605469 46.292969 46.460938 Z M 36.117188 64.761719 L 35.210938 65.371094 C 35.59375 66.015625 36.089844 66.585938 36.675781 67.054688 C 37.136719 67.34375 37.671875 67.484375 38.214844 67.457031 C 38.492188 67.453125 38.765625 67.417969 39.035156 67.339844 L 42.058594 66.246094 C 42.265625 66.167969 42.484375 66.125 42.703125 66.125 C 43.035156 66.101562 43.367188 66.191406 43.644531 66.378906 C 44.027344 66.691406 44.355469 67.058594 44.625 67.46875 L 45.484375 66.988281 L 45.484375 66.964844 C 45.113281 66.386719 44.648438 65.875 44.109375 65.449219 C 43.675781 65.148438 43.164062 64.988281 42.636719 65 C 42.460938 64.996094 42.28125 65.03125 42.121094 65.097656 L 38.847656 66.191406 C 38.640625 66.253906 38.421875 66.285156 38.203125 66.277344 C 37.816406 66.304688 37.425781 66.199219 37.109375 65.972656 C 36.710938 65.625 36.378906 65.21875 36.117188 64.761719 Z M 69.699219 66.941406 C 69.386719 66.96875 69.101562 67.125 68.902344 67.367188 C 68.664062 67.570312 68.511719 67.851562 68.476562 68.164062 C 68.453125 68.230469 68.453125 68.308594 68.476562 68.375 C 69.179688 69.117188 70.082031 69.644531 71.074219 69.890625 C 72.066406 70.195312 73.0625 70.492188 74.035156 70.765625 C 75.019531 71.089844 75.855469 71.757812 76.394531 72.644531 C 76.40625 72.683594 76.40625 72.726562 76.394531 72.765625 C 76.394531 72.953125 75.949219 73.253906 75.085938 73.691406 C 74.648438 73.945312 73.996094 74.5 72.902344 75.328125 C 72.21875 75.886719 71.492188 76.378906 70.71875 76.804688 C 70.0625 77.097656 69.488281 77.546875 69.046875 78.113281 C 69.035156 78.125 69.027344 78.132812 69.019531 78.144531 C 68.671875 78.542969 68.714844 79.15625 69.113281 79.503906 C 69.320312 79.703125 69.601562 79.8125 69.890625 79.808594 C 70.097656 79.804688 70.296875 79.753906 70.480469 79.65625 C 71.886719 78.769531 73.242188 77.792969 74.53125 76.738281 C 75.839844 75.652344 77.207031 74.636719 78.617188 73.691406 C 79.402344 73.210938 79.785156 72.710938 79.785156 72.195312 C 79.757812 71.851562 79.570312 71.539062 79.28125 71.355469 C 77.597656 69.84375 75.609375 68.722656 73.457031 68.046875 L 71.871094 67.359375 C 71.335938 67.117188 70.765625 66.976562 70.179688 66.941406 C 70.019531 66.917969 69.855469 66.917969 69.699219 66.941406 Z M 26.132812 67.054688 C 24.738281 68.101562 23.210938 68.960938 21.589844 69.609375 C 19.984375 70.269531 18.460938 71.121094 17.058594 72.144531 C 16.375 72.753906 15.980469 73.621094 15.964844 74.535156 C 16.042969 74.882812 16.292969 75.167969 16.621094 75.300781 C 16.914062 75.398438 17.222656 75.515625 17.519531 75.636719 C 20.503906 76.902344 23.308594 78.265625 25.929688 79.722656 C 26.277344 79.976562 26.605469 80.25 26.910156 80.550781 C 27.109375 80.640625 27.324219 80.683594 27.542969 80.683594 C 28.082031 80.6875 28.605469 80.503906 29.019531 80.160156 C 29.441406 79.859375 29.664062 79.355469 29.597656 78.839844 C 29.617188 78.460938 29.390625 78.113281 29.039062 77.972656 L 24.519531 75.984375 C 23.019531 75.347656 21.554688 74.617188 20.148438 73.800781 C 21.136719 72.570312 22.46875 71.660156 23.972656 71.179688 C 25.464844 70.699219 26.84375 69.914062 28.023438 68.875 C 28.195312 68.714844 28.289062 68.488281 28.285156 68.253906 C 28.277344 67.925781 28.121094 67.613281 27.859375 67.414062 C 27.546875 67.175781 27.164062 67.046875 26.769531 67.054688 Z M 57.738281 70.144531 C 56.859375 70.113281 56 70.429688 55.347656 71.027344 C 54.613281 71.753906 54.304688 72.804688 54.527344 73.8125 C 54.628906 74.765625 55.007812 75.667969 55.621094 76.402344 C 56.136719 77.089844 56.945312 77.492188 57.804688 77.492188 C 58.367188 77.484375 58.921875 77.335938 59.410156 77.058594 C 60.484375 76.289062 61.046875 74.992188 60.882812 73.683594 C 60.828125 72.210938 60.480469 71.214844 59.792969 70.734375 C 59.183594 70.332031 58.46875 70.125 57.738281 70.144531 Z M 40.789062 70.21875 C 39.910156 70.183594 39.050781 70.5 38.398438 71.09375 C 37.660156 71.816406 37.347656 72.867188 37.566406 73.878906 C 37.671875 74.828125 38.054688 75.730469 38.660156 76.46875 C 39.175781 77.15625 39.984375 77.5625 40.84375 77.558594 C 41.40625 77.546875 41.957031 77.402344 42.449219 77.125 C 43.429688 76.535156 43.914062 75.421875 43.914062 73.75 C 44.039062 72.652344 43.644531 71.5625 42.84375 70.800781 C 42.234375 70.398438 41.515625 70.195312 40.789062 70.21875 Z M 40.746094 72.566406 C 41.351562 72.566406 41.839844 73.054688 41.839844 73.660156 C 41.839844 74.265625 41.351562 74.753906 40.746094 74.753906 C 40.140625 74.753906 39.652344 74.265625 39.652344 73.660156 C 39.652344 73.054688 40.140625 72.566406 40.746094 72.566406 Z M 57.390625 72.691406 C 57.992188 72.6875 58.484375 73.175781 58.484375 73.78125 C 58.484375 74.386719 57.992188 74.875 57.390625 74.875 C 56.785156 74.875 56.300781 74.386719 56.300781 73.78125 C 56.300781 73.175781 56.785156 72.691406 57.390625 72.691406 Z M 46.808594 80.359375 C 46.785156 80.382812 46.769531 80.410156 46.757812 80.445312 L 46.757812 80.535156 C 46.90625 80.953125 47.097656 81.351562 47.324219 81.734375 C 47.53125 82.101562 47.789062 82.4375 48.089844 82.730469 C 48.359375 83.011719 48.675781 83.246094 49.027344 83.417969 C 49.375 83.5625 49.746094 83.644531 50.121094 83.65625 L 50.164062 83.703125 C 50.464844 83.707031 50.765625 83.648438 51.046875 83.539062 C 51.316406 83.429688 51.574219 83.289062 51.808594 83.117188 C 52.03125 82.9375 52.242188 82.742188 52.433594 82.527344 C 52.613281 82.324219 52.773438 82.105469 52.910156 81.871094 C 53.042969 81.664062 53.160156 81.449219 53.261719 81.226562 C 53.339844 81.066406 53.402344 80.898438 53.449219 80.726562 L 53.449219 80.628906 C 53.425781 80.597656 53.410156 80.566406 53.394531 80.53125 C 53.109375 80.96875 52.757812 81.355469 52.347656 81.675781 C 52.035156 81.972656 51.660156 82.199219 51.253906 82.34375 C 50.84375 82.484375 50.410156 82.554688 49.976562 82.550781 C 49.605469 82.558594 49.238281 82.503906 48.882812 82.398438 C 48.578125 82.300781 48.296875 82.152344 48.042969 81.960938 C 47.785156 81.753906 47.554688 81.523438 47.355469 81.265625 C 47.144531 80.980469 46.960938 80.675781 46.808594 80.359375 Z M 43.914062 84.550781 C 39.546875 84.78125 37 90.390625 30.90625 85.214844 C 29.246094 95.152344 41.390625 96.136719 46.382812 91.648438 C 49.835938 88.570312 48.863281 84.277344 43.914062 84.550781 Z M 53.921875 84.550781 C 49.75 84.808594 49.101562 88.761719 52.335938 91.648438 C 57.328125 96.136719 69.46875 95.152344 67.808594 85.214844 C 61.714844 90.390625 59.171875 84.777344 54.800781 84.550781 C 54.492188 84.535156 54.199219 84.535156 53.921875 84.550781 Z M 53.921875 84.550781 "/>
</g>
</svg>
